<svg width="1440" height="980" viewBox="0 0 1440 980" fill="none" xmlns="http://www.w3.org/2000/svg">
  <rect width="1440" height="980" fill="#EEF3F8"/>

  <text x="70" y="70" fill="#17324D" font-family="Segoe UI, Arial, sans-serif" font-size="32" font-weight="700">NativeForms Theme Mockup</text>
  <text x="70" y="104" fill="#5F6F89" font-family="Segoe UI, Arial, sans-serif" font-size="18">Starter scope visual model for reusable theme records assigned to forms.</text>

  <rect x="60" y="140" width="360" height="770" rx="24" fill="#FFFFFF" stroke="#D8E1EA"/>
  <text x="95" y="188" fill="#17324D" font-family="Segoe UI, Arial, sans-serif" font-size="28" font-weight="700">Theme Settings</text>
  <text x="95" y="220" fill="#5F6F89" font-family="Segoe UI, Arial, sans-serif" font-size="16">Reusable theme object</text>

  <g font-family="Segoe UI, Arial, sans-serif" font-size="16" fill="#17324D">
    <text x="95" y="280">Theme Name</text>
    <rect x="95" y="294" width="290" height="40" rx="10" fill="#F9FBFD" stroke="#CDD7E1"/>
    <text x="110" y="320" fill="#5F6F89">Corporate Blue</text>

    <text x="95" y="372">Logo</text>
    <rect x="95" y="386" width="290" height="78" rx="14" fill="#F9FBFD" stroke="#CDD7E1" stroke-dasharray="6 6"/>
    <text x="170" y="430" fill="#0F6CBD" font-size="18" font-weight="600">Upload logo</text>

    <text x="95" y="500">Logo Position</text>
    <rect x="95" y="514" width="138" height="40" rx="10" fill="#F9FBFD" stroke="#CDD7E1"/>
    <text x="110" y="540" fill="#5F6F89">Left</text>

    <text x="247" y="500">Form Width</text>
    <rect x="247" y="514" width="138" height="40" rx="10" fill="#F9FBFD" stroke="#CDD7E1"/>
    <text x="262" y="540" fill="#5F6F89">Wide</text>

    <text x="95" y="590">Fonts</text>
    <rect x="95" y="604" width="138" height="40" rx="10" fill="#F9FBFD" stroke="#CDD7E1"/>
    <text x="110" y="630" fill="#5F6F89">Roboto Slab</text>
    <rect x="247" y="604" width="138" height="40" rx="10" fill="#F9FBFD" stroke="#CDD7E1"/>
    <text x="262" y="630" fill="#5F6F89">Inter</text>

    <text x="95" y="680">Colors</text>
  </g>

  <g>
    <circle cx="121" cy="721" r="18" fill="#0F6CBD"/>
    <circle cx="175" cy="721" r="18" fill="#17324D"/>
    <circle cx="229" cy="721" r="18" fill="#FFFFFF" stroke="#CDD7E1"/>
    <circle cx="283" cy="721" r="18" fill="#E7F0FA"/>
    <circle cx="337" cy="721" r="18" fill="#B42318"/>
  </g>
  <g font-family="Segoe UI, Arial, sans-serif" font-size="13" fill="#5F6F89">
    <text x="102" y="758">Primary</text>
    <text x="159" y="758">Text</text>
    <text x="208" y="758">Form BG</text>
    <text x="266" y="758">Input BG</text>
    <text x="323" y="758">Error</text>
  </g>

  <g font-family="Segoe UI, Arial, sans-serif" font-size="16" fill="#17324D">
    <text x="95" y="812">Button Style</text>
    <rect x="95" y="826" width="138" height="40" rx="10" fill="#F9FBFD" stroke="#CDD7E1"/>
    <text x="110" y="852" fill="#5F6F89">Rounded</text>
    <rect x="247" y="826" width="138" height="40" rx="10" fill="#F9FBFD" stroke="#CDD7E1"/>
    <text x="262" y="852" fill="#5F6F89">14px</text>
  </g>

  <rect x="455" y="140" width="925" height="770" rx="28" fill="#FFFFFF" stroke="#D8E1EA"/>
  <text x="500" y="190" fill="#17324D" font-family="Segoe UI, Arial, sans-serif" font-size="28" font-weight="700">Live Theme Preview</text>
  <text x="500" y="224" fill="#5F6F89" font-family="Segoe UI, Arial, sans-serif" font-size="16">This is how the assigned theme could affect a real form.</text>

  <rect x="520" y="270" width="790" height="570" rx="24" fill="#FFFFFF" stroke="#D5DFEA" stroke-width="2"/>
  <image href="data:image/svg+xml,%3Csvg xmlns='http://www.w3.org/2000/svg' width='120' height='44'%3E%3Crect width='120' height='44' fill='white'/%3E%3Ctext x='0' y='31' font-family='Segoe UI, Arial' font-size='30' fill='%230F6CBD' font-weight='700'%3ENativeForms%3C/text%3E%3C/svg%3E" x="566" y="312" width="150" height="55"/>
  <text x="566" y="410" fill="#17324D" font-family="Georgia, 'Times New Roman', serif" font-size="38" font-weight="700">Problem Report</text>
  <text x="566" y="444" fill="#5F6F89" font-family="Segoe UI, Arial, sans-serif" font-size="18">A polished reusable theme applied to this form.</text>

  <text x="566" y="510" fill="#17324D" font-family="Segoe UI, Arial, sans-serif" font-size="17" font-weight="600">First Name</text>
  <rect x="566" y="526" width="328" height="52" rx="14" fill="#F6FAFE" stroke="#C8D6E5"/>
  <text x="586" y="559" fill="#8A97A8" font-family="Segoe UI, Arial, sans-serif" font-size="18">Enter text</text>

  <text x="928" y="510" fill="#17324D" font-family="Segoe UI, Arial, sans-serif" font-size="17" font-weight="600">Last Name</text>
  <rect x="928" y="526" width="328" height="52" rx="14" fill="#F6FAFE" stroke="#C8D6E5"/>
  <text x="948" y="559" fill="#8A97A8" font-family="Segoe UI, Arial, sans-serif" font-size="18">Enter text</text>

  <text x="566" y="620" fill="#17324D" font-family="Georgia, 'Times New Roman', serif" font-size="24" font-weight="700">Contact Info</text>
  <rect x="566" y="646" width="690" height="110" rx="20" fill="#FFFFFF" stroke="#D5DFEA"/>
  <text x="594" y="686" fill="#17324D" font-family="Segoe UI, Arial, sans-serif" font-size="17" font-weight="600">Country</text>
  <rect x="594" y="700" width="260" height="44" rx="14" fill="#F6FAFE" stroke="#C8D6E5"/>
  <text x="614" y="728" fill="#17324D" font-family="Segoe UI, Arial, sans-serif" font-size="18">Web</text>
  <path d="M830 717L840 727L850 717" stroke="#5F6F89" stroke-width="2.5" stroke-linecap="round" stroke-linejoin="round"/>

  <rect x="1080" y="784" width="176" height="56" rx="18" fill="#0F6CBD"/>
  <text x="1128" y="819" fill="white" font-family="Segoe UI, Arial, sans-serif" font-size="20" font-weight="700">Submit</text>

  <rect x="500" y="140" width="120" height="32" rx="16" fill="#E8F1FB"/>
  <text x="528" y="161" fill="#0F6CBD" font-family="Segoe UI, Arial, sans-serif" font-size="14" font-weight="700">Starter</text>
</svg>
